<?xml version="1.0" standalone="no"?>
<!DOCTYPE svg PUBLIC "-//W3C//DTD SVG 20010904//EN"
 "http://www.w3.org/TR/2001/REC-SVG-20010904/DTD/svg10.dtd">
<svg version="1.0" xmlns="http://www.w3.org/2000/svg"
 width="1024.000000pt" height="1024.000000pt" viewBox="0 0 1024.000000 1024.000000"
 preserveAspectRatio="xMidYMid meet">

<g transform="translate(0.000000,1024.000000) scale(0.100000,-0.100000)"
fill="#000000" stroke="none">
<path d="M5533 9183 c9 -2 25 -2 35 0 9 3 1 5 -18 5 -19 0 -27 -2 -17 -5z"/>
<path d="M5735 9160 c203 -32 497 -103 605 -147 63 -25 209 -74 213 -70 1 1
19 -9 40 -21 20 -13 37 -21 37 -17 0 3 6 1 13 -4 6 -6 93 -51 192 -101 221
-112 579 -345 720 -470 113 -99 359 -350 452 -460 169 -202 402 -520 380 -520
-6 0 -166 195 -237 290 -173 231 -455 522 -675 699 -195 157 -531 371 -556
355 -7 -4 -9 -3 -6 3 3 5 -10 17 -29 27 -30 14 -39 14 -53 4 -14 -11 -14 -11
-3 3 10 14 1 21 -74 58 -47 22 -94 41 -105 41 -10 0 -19 4 -19 8 0 7 -47 29
-85 40 -26 7 95 -54 135 -69 25 -9 44 -21 43 -27 -2 -7 4 -9 13 -5 9 3 19 1
23 -4 3 -6 20 -15 36 -21 18 -6 23 -11 12 -11 -10 -1 -15 -5 -12 -11 3 -5 1
-10 -6 -10 -8 0 -10 -12 -5 -39 4 -27 2 -41 -7 -44 -8 -4 -8 -6 2 -6 11 -1 10
-5 -5 -16 -23 -17 -38 -19 -28 -4 4 7 1 10 -7 7 -8 -3 -43 10 -79 28 -233 117
-507 207 -801 263 -530 102 -974 102 -1454 0 -698 -147 -1319 -469 -1752 -906
-376 -380 -654 -838 -869 -1431 -118 -326 -175 -612 -194 -980 -21 -411 39
-750 210 -1187 42 -108 47 -128 46 -197 -1 -42 -4 -80 -8 -84 -4 -3 -3 -15 3
-25 5 -11 6 -19 1 -19 -10 0 -25 -38 -22 -55 2 -9 -38 -94 -50 -105 -3 -3 -14
-22 -25 -42 -11 -21 -25 -38 -31 -38 -6 0 -17 -14 -24 -31 l-13 -30 -68 128
c-147 275 -272 650 -325 969 -19 118 -21 368 -3 390 8 10 15 102 20 283 12
409 42 587 161 951 140 428 401 904 702 1280 82 102 299 323 421 429 619 536
1440 875 2265 936 97 7 146 13 109 14 -193 3 -574 -47 -814 -109 -425 -109
-785 -270 -1180 -528 -451 -294 -817 -675 -1125 -1172 -324 -522 -525 -1117
-555 -1640 -3 -58 -13 -188 -22 -289 -21 -248 -14 -459 21 -646 106 -564 352
-1078 780 -1630 133 -172 229 -281 394 -448 365 -370 712 -613 1155 -812 248
-111 507 -200 684 -236 41 -9 58 -16 50 -22 -7 -5 -4 -6 9 -2 12 3 41 1 65 -4
190 -43 572 -74 718 -60 251 25 464 57 673 100 70 15 103 17 115 10 12 -7 13
-10 4 -11 -8 0 -11 -6 -7 -17 4 -10 4 -15 1 -11 -4 3 -15 -2 -24 -11 -30 -30
-288 -71 -556 -87 -126 -8 -126 -9 -1 -35 58 -12 371 -6 521 10 55 6 116 12
137 13 20 2 35 5 33 9 -2 3 40 5 93 6 97 1 391 45 424 63 10 5 34 14 55 19 67
17 137 39 191 60 28 12 75 30 103 40 27 11 64 28 82 38 18 11 59 30 92 43 96
38 201 95 226 123 9 9 21 17 26 17 12 0 76 31 83 40 14 17 132 90 145 90 9 0
13 5 10 10 -3 6 -2 10 4 10 5 0 16 6 23 13 7 7 33 29 58 49 25 20 70 60 100
88 30 28 79 72 109 98 62 54 150 142 201 202 19 23 54 61 78 85 23 24 42 46
42 50 0 4 10 18 23 30 37 38 67 72 67 79 0 3 14 25 30 48 17 22 30 47 30 54 0
7 8 15 18 18 10 4 26 24 36 46 10 22 21 40 26 40 10 0 80 117 80 134 0 7 9 21
20 31 11 10 20 24 20 32 0 7 5 13 10 13 6 0 10 7 10 16 0 8 11 30 25 48 14 18
25 38 25 45 0 6 10 28 23 49 13 20 36 64 51 97 15 33 31 67 36 75 28 46 71
143 76 172 4 18 18 58 31 88 13 30 31 70 38 87 8 18 12 39 9 48 -4 8 -1 15 5
15 6 0 16 20 22 45 6 25 15 45 19 45 8 0 17 37 25 105 3 22 10 70 15 107 14
91 13 145 -2 151 -10 4 -10 6 -1 6 7 1 10 8 7 16 -4 8 -2 15 3 15 6 0 16 55
23 122 7 67 16 134 20 148 4 14 3 54 -1 89 -6 40 -5 69 1 79 8 13 9 11 4 -10
-3 -15 -1 -35 5 -45 10 -14 11 -9 7 27 -3 25 -8 62 -12 84 -4 21 -3 36 2 33 5
-3 9 120 8 281 -1 408 -27 580 -170 1147 -4 16 -3 17 5 5 13 -18 14 -6 2 18
-5 9 -28 71 -51 137 -23 66 -51 140 -62 165 -64 146 -91 203 -174 370 -198
397 -431 717 -764 1051 -278 278 -521 460 -855 638 -420 225 -901 380 -1250
405 -73 5 -69 4 40 -14z m1082 -526 c-3 -3 -12 -4 -19 -1 -8 3 -5 6 6 6 11 1
17 -2 13 -5z m-7 -26 c0 -6 -3 -8 -7 -5 -3 4 -12 2 -20 -4 -8 -8 -13 -8 -13
-1 0 10 15 19 33 21 4 1 7 -4 7 -11z m20 -28 c0 -5 -7 -7 -15 -4 -8 4 -15 8
-15 10 0 2 7 4 15 4 8 0 15 -4 15 -10z m80 -56 c0 -2 -9 0 -20 6 -11 6 -20 13
-20 16 0 2 9 0 20 -6 11 -6 20 -13 20 -16z m-2223 -90 c-3 -3 -12 -4 -19 -1
-8 3 -5 6 6 6 11 1 17 -2 13 -5z m-70 -10 c-3 -3 -12 -4 -19 -1 -8 3 -5 6 6 6
11 1 17 -2 13 -5z m-104 -21 c-7 -2 -19 -2 -25 0 -7 3 -2 5 12 5 14 0 19 -2
13 -5z m-50 -10 c-7 -2 -19 -2 -25 0 -7 3 -2 5 12 5 14 0 19 -2 13 -5z m-46
-9 c-3 -3 -12 -4 -19 -1 -8 3 -5 6 6 6 11 1 17 -2 13 -5z m-40 -10 c-3 -3 -12
-4 -19 -1 -8 3 -5 6 6 6 11 1 17 -2 13 -5z m-57 -14 c-34 -11 -60 -11 -35 0
11 5 29 8 40 8 16 0 15 -2 -5 -8z m-73 -16 c-3 -3 -12 -4 -19 -1 -8 3 -5 6 6
6 11 1 17 -2 13 -5z m-186 -50 c-68 -19 -126 -33 -128 -31 -2 2 29 13 69 25
119 34 142 40 163 41 11 0 -36 -16 -104 -35z m583 -42 c-5 -5 -43 -36 -85 -70
-82 -65 -216 -236 -322 -407 -50 -80 -217 -266 -217 -241 0 5 37 48 83 95 68
72 197 254 197 280 0 16 -322 -25 -427 -55 -28 -8 -56 -21 -62 -27 -10 -13
-101 -254 -101 -270 0 -5 -14 -43 -30 -84 -17 -42 -29 -78 -26 -80 2 -2 33 3
68 11 66 15 162 56 236 101 23 14 42 22 42 17 0 -17 -171 -99 -265 -127 -49
-15 -96 -32 -102 -37 -18 -15 -17 6 2 43 9 16 41 103 71 192 31 89 62 177 70
195 17 41 23 41 -191 -3 -271 -56 -251 -47 -290 -126 -30 -58 -32 -69 -20 -79
12 -10 19 -10 32 1 15 13 16 12 10 -9 -4 -18 2 -30 26 -52 18 -16 44 -34 60
-41 15 -6 27 -18 27 -26 0 -7 16 -23 35 -34 19 -12 35 -27 35 -34 0 -17 33
-25 76 -18 22 4 34 2 34 -6 0 -6 -6 -11 -14 -11 -24 0 -30 -22 -11 -37 11 -7
38 -13 61 -13 23 0 57 -6 75 -14 29 -12 37 -12 66 4 18 9 41 27 51 40 13 16
31 23 67 25 53 3 83 27 57 44 -10 6 -1 14 30 30 54 26 90 28 86 5 -5 -28 21
-27 28 0 3 14 11 26 16 26 6 0 7 7 4 16 -4 9 -1 23 5 30 6 8 9 24 6 36 -4 15
2 33 16 50 19 24 30 28 82 29 83 3 106 -6 102 -39 -3 -19 -12 -30 -33 -37 -40
-13 -41 -15 -21 -30 15 -11 16 -17 8 -34 -15 -27 7 -41 26 -15 44 60 54 66 94
60 38 -6 39 -6 39 25 0 28 -3 31 -24 25 -16 -4 -29 0 -41 14 -18 20 -17 21 11
50 27 28 73 43 58 19 -4 -8 16 -9 69 -5 47 4 78 3 82 -4 3 -5 17 -10 30 -10
13 0 37 -11 53 -25 36 -30 37 -30 73 -4 29 20 40 14 17 -10 -11 -10 -9 -16 10
-28 16 -12 22 -25 22 -54 0 -37 -1 -39 -33 -39 -49 0 -92 -15 -131 -47 -43
-33 -45 -46 -11 -61 33 -15 35 -15 35 3 0 8 5 15 10 15 6 0 10 9 10 19 0 28
50 37 90 16 18 -9 38 -14 46 -11 19 7 18 36 -1 36 -23 0 -18 30 8 39 17 7 26
4 37 -10 9 -11 22 -18 30 -15 19 7 93 -18 98 -33 2 -6 15 -11 28 -11 21 0 23
3 14 19 -9 19 -9 19 20 4 24 -12 34 -12 45 -3 19 16 19 25 -1 44 -14 15 -14
16 4 16 14 0 21 -9 26 -30 4 -23 11 -30 29 -30 13 0 27 4 33 10 6 6 22 6 44 0
19 -6 60 -10 90 -10 52 0 53 1 32 16 -26 18 -28 36 -7 54 20 17 10 30 -24 30
-15 0 -53 10 -84 23 l-56 23 34 27 c41 33 43 43 13 75 -17 17 0 10 61 -25 51
-29 98 -65 120 -92 20 -25 51 -61 69 -80 33 -35 38 -29 17 22 -6 15 -4 17 16
13 13 -3 47 -8 74 -11 28 -3 83 -21 123 -40 39 -19 72 -31 72 -27 0 4 -16 20
-35 35 -39 31 -45 56 -14 64 12 4 18 11 15 20 -3 7 1 16 9 19 23 9 18 19 -26
50 -38 26 -39 29 -20 36 24 9 27 21 8 37 -16 13 -90 -12 -124 -42 -30 -27 -74
-20 -194 32 -53 22 -102 41 -108 41 -16 0 -14 22 5 49 15 21 22 23 68 17 49
-7 250 -50 290 -62 29 -9 -53 83 -84 95 -14 5 -52 13 -85 17 -59 7 -59 7 -22
14 41 8 55 6 164 -17 77 -16 114 -38 143 -86 27 -44 151 -98 238 -102 38 -2
109 -17 162 -34 102 -32 242 -71 254 -71 4 0 4 5 0 11 -3 6 -1 21 6 34 10 18
9 28 -5 55 -13 25 -14 34 -5 40 7 4 9 13 6 19 -9 14 -7 14 32 0 18 -6 29 -15
26 -21 -7 -12 24 -48 43 -48 7 0 13 5 13 12 0 7 17 -4 38 -23 20 -20 67 -59
104 -88 37 -29 82 -71 100 -94 18 -23 23 -35 13 -26 -11 9 -40 27 -65 41 -25
15 -76 59 -114 99 -39 40 -72 67 -74 61 -2 -7 -10 -12 -18 -12 -7 0 -16 -12
-20 -27 -3 -16 -7 -32 -8 -38 -2 -5 -16 -10 -32 -10 -18 0 -30 -6 -32 -16 -2
-13 28 -27 138 -64 77 -27 143 -52 147 -58 3 -5 0 -7 -8 -4 -8 3 -45 15 -84
27 -104 31 -185 61 -233 87 -24 13 -51 23 -60 22 -12 0 -9 -3 7 -10 14 -5 31
-19 39 -30 8 -12 30 -28 49 -35 32 -14 37 -34 8 -34 -8 0 -48 22 -90 49 -41
27 -92 55 -113 61 -20 7 -49 24 -64 38 l-27 25 10 -39 c6 -21 14 -43 17 -49 4
-5 7 -14 8 -20 0 -5 2 -15 2 -21 2 -15 40 -29 137 -53 322 -78 412 -108 580
-194 305 -157 620 -447 831 -764 117 -176 230 -423 219 -479 -2 -11 -4 -23 -5
-29 0 -5 -8 2 -16 18 -32 59 -47 9 -20 -69 8 -22 12 -54 10 -70 -3 -16 -7 -46
-9 -67 -2 -21 -6 -41 -9 -44 -5 -5 -39 63 -59 120 -4 9 -16 17 -27 17 -12 0
-20 7 -20 16 0 9 -17 36 -39 59 -21 23 -49 61 -62 84 -22 39 -26 42 -59 37
-33 -4 -33 -4 -10 7 14 6 26 12 28 13 6 4 -30 69 -51 92 -33 36 -47 28 -47
-27 0 -57 -10 -69 -34 -42 -20 22 -74 47 -83 38 -3 -4 13 -31 36 -60 22 -30
41 -64 41 -76 0 -12 -13 -41 -28 -64 -16 -23 -32 -55 -36 -70 -4 -16 -25 -48
-46 -71 -22 -24 -40 -51 -40 -61 0 -19 46 -142 60 -160 4 -5 10 -27 14 -47 8
-46 19 -53 57 -38 24 10 35 10 54 0 21 -11 22 -16 12 -39 -6 -14 -22 -41 -35
-60 -22 -30 -23 -37 -14 -69 6 -20 10 -38 7 -40 -2 -2 -9 14 -16 37 -11 36
-16 41 -43 41 -50 0 -60 12 -54 65 4 31 0 61 -12 93 -10 26 -24 73 -31 106 -8
35 -19 60 -28 63 -9 3 -25 9 -36 13 -11 5 -48 11 -83 14 -35 3 -71 10 -80 15
-13 7 -23 4 -40 -12 -34 -31 -45 -12 -32 54 6 30 15 64 20 77 5 12 7 22 4 22
-3 0 -33 -18 -67 -41 -69 -45 -48 -23 29 30 48 33 48 34 24 43 -14 6 -65 8
-115 5 -63 -3 -81 -1 -60 5 17 5 77 7 134 4 70 -3 113 0 133 9 22 9 43 10 71
3 22 -5 45 -7 51 -5 12 4 -148 168 -180 185 -18 10 -28 7 -58 -17 -92 -74
-300 -133 -473 -135 l-112 -1 -55 -54 -55 -55 -38 28 c-101 74 -209 139 -284
172 -120 51 -317 156 -442 236 -197 127 -340 183 -562 224 -81 15 -149 18
-355 18 -231 0 -269 -3 -403 -27 -82 -15 -153 -30 -159 -33 -7 -5 -9 -35 -4
-90 7 -97 13 -117 33 -110 28 11 209 45 303 58 128 16 482 16 595 -1 193 -28
601 -122 653 -150 12 -6 96 -77 188 -157 91 -80 204 -171 250 -201 46 -31 84
-59 84 -62 0 -3 -17 -17 -37 -31 -65 -44 -181 -159 -345 -345 -162 -183 -203
-223 -214 -213 -3 4 -21 47 -39 97 -45 126 -87 192 -180 287 -90 91 -182 148
-310 191 -72 24 -94 27 -220 27 -127 0 -147 -3 -215 -27 -210 -76 -371 -232
-476 -462 -18 -41 -38 -75 -43 -75 -5 0 -78 84 -162 186 -381 463 -496 590
-654 724 -103 87 -255 191 -268 183 -6 -3 -7 -2 -4 4 4 6 -5 15 -19 22 -19 8
-24 8 -18 -1 5 -8 2 -9 -10 -5 -10 4 -25 7 -35 7 -24 0 -63 38 -55 53 4 7 4 9
-1 5 -4 -4 -14 0 -22 10 -8 9 -12 13 -10 7 3 -5 26 -55 52 -110 101 -213 144
-313 158 -366 8 -30 33 -105 56 -166 44 -122 48 -143 27 -143 -15 0 -58 77
-111 203 -21 48 -43 87 -51 87 -7 0 -16 4 -19 10 -3 6 1 7 9 4 23 -9 20 8 -9
47 -14 19 -53 91 -87 162 -34 70 -66 126 -72 124 -6 -3 -10 -10 -8 -16 1 -7
-2 -9 -8 -6 -8 5 -7 14 3 28 13 20 12 30 -14 101 -16 43 -28 84 -27 90 2 7
-14 50 -35 98 l-38 85 -60 7 c-34 3 -88 13 -121 22 -66 17 -84 14 -91 -13 -2
-10 -4 -6 -3 9 2 24 -5 29 -98 67 -56 23 -105 41 -110 41 -13 0 2 -138 30
-275 24 -122 30 -164 13 -110 -12 39 -56 267 -64 328 -3 26 -9 47 -13 47 -5 0
-23 -25 -41 -55 -19 -31 -36 -54 -38 -51 -2 2 10 32 27 65 17 34 28 67 24 73
-5 7 -2 9 7 6 10 -4 15 1 16 15 1 11 7 23 12 26 6 4 15 45 20 92 5 47 23 138
40 203 17 65 31 127 31 137 0 10 5 19 11 19 7 0 9 -18 5 -52 l-5 -53 10 45 c6
24 17 54 25 65 14 19 14 19 14 0 0 -11 -7 -29 -15 -39 -8 -11 -15 -25 -15 -30
1 -6 25 16 55 49 67 72 76 51 13 -29 -24 -29 -50 -63 -58 -76 -8 -12 -21 -29
-28 -36 -7 -8 -16 -30 -19 -49 -3 -20 -10 -32 -16 -28 -5 3 -7 1 -3 -5 3 -6 0
-30 -8 -54 -16 -48 -32 -158 -22 -158 13 0 45 34 39 43 -3 6 -1 7 6 3 14 -9
64 21 56 33 -2 5 3 15 13 22 15 13 16 12 3 -3 -22 -29 -3 -21 60 25 32 23 57
48 54 55 -2 6 0 12 5 12 6 0 10 -4 10 -9 0 -5 19 10 42 33 23 22 41 45 40 49
-1 5 2 6 7 3 10 -7 194 129 341 253 52 43 97 78 99 76 2 -2 -2 -34 -8 -71 -11
-59 -10 -69 5 -83 12 -12 18 -13 21 -3 3 6 10 12 16 12 8 0 7 -4 -1 -12 -7 -7
-12 -38 -12 -71 l0 -58 40 22 c23 13 66 45 97 71 32 26 64 48 73 48 10 -1 8
-4 -7 -13 -11 -7 -44 -33 -73 -60 -28 -26 -68 -56 -89 -67 -34 -17 -39 -24
-45 -66 -8 -61 -1 -69 36 -42 16 13 42 30 57 39 14 9 26 20 26 25 1 20 41 67
77 90 21 13 38 32 38 41 0 9 7 24 15 33 9 10 13 24 10 33 -8 19 -51 17 -119
-7 -28 -10 -61 -14 -77 -11 -25 6 -29 13 -39 63 -6 31 -18 72 -27 90 -14 29
-15 41 -5 89 8 38 8 61 1 75 -14 26 -3 53 37 98 21 23 35 50 38 71 4 39 23 50
28 17 l5 -23 9 23 c22 51 225 200 447 327 79 45 52 20 -47 -43 -52 -33 -97
-65 -100 -71 -4 -6 -14 -7 -23 -4 -12 5 -14 3 -8 -8 4 -8 5 -11 1 -7 -9 8
-136 -83 -208 -149 -26 -24 -41 -43 -33 -43 8 0 22 -11 31 -25 18 -27 44 -26
72 1 7 8 22 14 32 14 10 0 48 36 91 88 41 48 114 127 164 176 49 49 89 93 87
98 -1 5 2 7 8 3 6 -4 27 7 48 23 35 27 152 94 152 87 0 -2 -42 -31 -94 -65
-62 -40 -126 -94 -192 -163 -147 -151 -246 -274 -212 -262 7 2 101 22 208 45
228 47 252 54 275 80 21 23 44 27 25 5 -18 -22 0 -19 66 10 68 30 82 32 34 4
l-35 -20 30 6 c93 18 276 44 313 45 49 0 49 0 117 90 27 36 62 81 79 100 35
42 177 153 184 145 3 -3 1 -9 -4 -13z m316 -72 c6 -11 8 -20 6 -20 -3 0 -10 9
-16 20 -6 11 -8 20 -6 20 3 0 10 -9 16 -20z m530 -15 c0 -2 -24 -17 -52 -31
-58 -29 -58 -23 0 12 38 23 52 28 52 19z m-452 -130 c28 -55 49 -102 46 -104
-5 -5 0 -15 -62 114 -30 61 -49 106 -44 100 5 -5 33 -55 60 -110z m-602 90
c-11 -8 -25 -15 -30 -15 -6 1 0 7 14 15 32 19 40 18 16 0z m-48 -20 c-8 -8
-368 -174 -368 -169 0 5 85 48 230 115 114 53 152 68 138 54z m952 -20 c0 -2
-10 -9 -22 -15 -22 -11 -22 -10 -4 4 21 17 26 19 26 11z m-185 -105 c-3 -5
-12 -10 -18 -10 -7 0 -6 4 3 10 19 12 23 12 15 0z m1069 -59 c-3 -3 -15 6 -27
18 l-22 24 27 -19 c14 -10 24 -21 22 -23z m-1511 12 c-34 -2 -93 -2 -130 0
-37 2 -9 3 62 3 72 0 102 -1 68 -3z m-310 -10 c-7 -2 -21 -2 -30 0 -10 3 -4 5
12 5 17 0 24 -2 18 -5z m-1780 -36 c3 -7 -3 -13 -14 -13 -13 0 -15 3 -7 13 6
7 12 13 13 13 2 0 5 -6 8 -13z m2479 -4 c16 -14 16 -17 0 -50 -13 -27 -18 -31
-22 -17 -5 14 -13 8 -39 -29 -44 -64 -48 -59 -9 11 l33 57 -29 -19 c-16 -10
-25 -13 -21 -6 5 8 3 11 -6 8 -8 -3 -14 -9 -14 -14 0 -10 -146 -150 -180 -173
-11 -7 -6 -1 10 14 89 83 165 155 162 155 -3 0 -55 -23 -116 -51 -62 -28 -114
-49 -117 -46 -2 2 24 17 58 32 35 15 94 43 132 62 38 18 75 33 82 33 7 0 15 4
18 9 3 4 -7 7 -22 5 -15 -2 -19 -1 -9 2 10 3 16 12 13 19 -7 19 54 17 76 -2z
m375 1 c-3 -3 -12 -4 -19 -1 -8 3 -5 6 6 6 11 1 17 -2 13 -5z m-539 -21 c-21
-2 -55 -2 -75 0 -21 2 -4 4 37 4 41 0 58 -2 38 -4z m-135 -10 c-7 -2 -19 -2
-25 0 -7 3 -2 5 12 5 14 0 19 -2 13 -5z m-80 -10 c-7 -2 -19 -2 -25 0 -7 3 -2
5 12 5 14 0 19 -2 13 -5z m114 -39 c-3 -3 -12 -4 -19 -1 -8 3 -5 6 6 6 11 1
17 -2 13 -5z m-110 -30 c-3 -3 -12 -4 -19 -1 -8 3 -5 6 6 6 11 1 17 -2 13 -5z
m-2207 -29 c-16 -19 -30 -19 -30 -1 0 8 8 16 18 18 24 6 27 1 12 -17z m2167
19 c-3 -3 -12 -4 -19 -1 -8 3 -5 6 6 6 11 1 17 -2 13 -5z m-40 -10 c-3 -3 -12
-4 -19 -1 -8 3 -5 6 6 6 11 1 17 -2 13 -5z m-40 -10 c-3 -3 -12 -4 -19 -1 -8
3 -5 6 6 6 11 1 17 -2 13 -5z m-2130 -24 c1 -11 -2 -18 -8 -15 -13 9 -11 -9 4
-25 6 -8 2 -6 -10 4 -22 18 -22 18 -28 -7 -4 -14 -13 -28 -21 -31 -7 -3 -11
-12 -8 -21 3 -8 1 -15 -5 -15 -16 0 -13 23 7 49 29 39 64 81 66 81 1 0 2 -9 3
-20z m2090 14 c-3 -3 -12 -4 -19 -1 -8 3 -5 6 6 6 11 1 17 -2 13 -5z m-40 -10
c-3 -3 -12 -4 -19 -1 -8 3 -5 6 6 6 11 1 17 -2 13 -5z m-81 -24 c-28 -11 -52
-18 -54 -15 -3 2 6 8 19 13 13 5 31 12 39 15 8 3 22 6 30 6 8 0 -7 -9 -34 -19z
m547 -35 c-9 -19 -18 -33 -21 -31 -4 5 26 66 33 66 3 0 -3 -16 -12 -35z
m-2533 1 c0 -3 -4 -8 -10 -11 -5 -3 -10 -1 -10 4 0 6 5 11 10 11 6 0 10 -2 10
-4z m2267 -12 c-3 -3 -12 -4 -19 -1 -8 3 -5 6 6 6 11 1 17 -2 13 -5z m396 -51
c3 -24 1 -43 -4 -43 -5 0 -9 21 -9 47 0 56 5 54 13 -4z m-2683 33 c0 -3 -4 -8
-10 -11 -5 -3 -10 -1 -10 4 0 6 5 11 10 11 6 0 10 -2 10 -4z m-57 -29 c3 -8
-1 -14 -8 -14 -7 0 -11 6 -8 14 3 7 6 13 8 13 2 0 5 -6 8 -13z m2654 -39 c-2
-13 -4 -5 -4 17 -1 22 1 32 4 23 2 -10 2 -28 0 -40z m-86 5 c-12 -20 -14 -14
-5 12 4 9 9 14 11 11 3 -2 0 -13 -6 -23z m-2605 -25 c4 -7 4 -10 -1 -6 -4 4
-15 2 -24 -5 -14 -11 -14 -10 -2 6 16 20 18 21 27 5z m47 -6 c4 9 6 9 6 1 2
-23 -18 -23 -29 -1 -10 21 -10 22 3 5 11 -14 16 -15 20 -5z m1619 -54 c-7 -7
-12 -8 -12 -2 0 14 12 26 19 19 2 -3 -1 -11 -7 -17z m-1709 5 c-10 -3 -10 -10
-2 -26 10 -21 10 -21 -5 -3 -15 19 -22 12 -17 -16 0 -5 -3 -8 -9 -8 -5 0 -10
3 -10 8 0 15 31 52 43 51 9 0 9 -2 0 -6z m-23 -73 c0 -6 -11 -15 -25 -20 -28
-11 -31 -20 -13 -38 9 -9 6 -12 -14 -10 -25 2 -25 3 -10 28 26 41 62 65 62 40z
m2380 -9 c0 -12 -20 -25 -27 -18 -7 7 6 27 18 27 5 0 9 -4 9 -9z m2131 -11
c10 -6 19 -15 19 -21 0 -13 -40 -2 -60 17 -12 12 -12 14 4 14 9 0 26 -5 37
-10z m-4441 -26 c0 -8 -5 -12 -10 -9 -6 4 -8 11 -5 16 9 14 15 11 15 -7z m-26
-53 c-4 -17 -9 -30 -11 -27 -3 2 -2 19 2 36 9 41 17 33 9 -9z m126 35 c0 -3
-4 -8 -10 -11 -5 -3 -10 -1 -10 4 0 6 5 11 10 11 6 0 10 -2 10 -4z m-256 -42
c4 -10 2 -13 -6 -8 -7 5 -9 2 -6 -8 4 -8 1 -15 -7 -15 -10 0 -11 6 -2 24 12
27 13 28 21 7z m36 -4 c0 -5 -4 -10 -10 -10 -5 0 -10 5 -10 10 0 6 5 10 10 10
6 0 10 -4 10 -10z m20 -20 c0 -5 -5 -10 -11 -10 -5 0 -7 5 -4 10 3 6 8 10 11
10 2 0 4 -4 4 -10z m30 -14 c0 -3 -4 -8 -10 -11 -5 -3 -10 -1 -10 4 0 6 5 11
10 11 6 0 10 -2 10 -4z m775 -25 c-3 -5 5 -17 17 -25 12 -9 18 -16 12 -16 -15
0 -45 35 -37 43 9 10 15 8 8 -2z m-909 -33 c-1 -13 -6 -22 -9 -20 -4 1 -12 2
-19 2 -6 0 -3 9 8 19 24 25 25 25 20 -1z m111 -10 c-3 -8 -6 -5 -6 6 -1 11 2
17 5 13 3 -3 4 -12 1 -19z m-40 -14 c-3 -3 -12 -4 -19 -1 -8 3 -5 6 6 6 11 1
17 -2 13 -5z m-70 -13 c9 8 13 8 13 0 0 -6 -4 -11 -10 -11 -5 0 -10 -8 -10
-17 0 -15 -2 -14 -14 3 -8 10 -18 15 -22 11 -5 -4 -3 -11 3 -15 7 -5 9 -13 4
-21 -5 -7 -14 -10 -20 -7 -7 5 -11 -1 -11 -13 0 -18 6 -21 40 -21 55 0 51 -17
-5 -22 -32 -2 -45 1 -45 10 0 7 -4 11 -9 8 -10 -7 25 71 42 92 7 9 13 10 20 3
7 -7 15 -7 24 0z m-79 -132 c8 -12 9 -18 2 -14 -7 4 -9 -2 -5 -22 4 -23 4 -24
-4 -8 -7 14 -10 15 -10 5 -1 -13 -2 -13 -11 0 -5 8 -9 22 -9 30 0 10 3 9 10
-5 8 -17 9 -16 6 8 -5 32 3 35 21 6z m-42 -74 c-3 -9 -10 -13 -16 -10 -6 3
-10 -4 -10 -16 0 -12 -3 -20 -6 -16 -4 3 -3 18 0 34 6 22 9 24 18 12 7 -11 8
-8 4 10 -3 17 -2 21 6 13 6 -6 8 -18 4 -27z m-45 -86 c-5 -13 -10 -19 -10 -12
-1 15 10 45 15 40 3 -2 0 -15 -5 -28z m-13 -44 c-3 -3 -9 2 -12 12 -6 14 -5
15 5 6 7 -7 10 -15 7 -18z m770 -378 c8 -9 13 -20 9 -23 -6 -6 -57 77 -57 92
1 5 8 -4 17 -21 8 -16 22 -38 31 -48z m-441 -189 c-3 -8 -6 -5 -6 6 -1 11 2
17 5 13 3 -3 4 -12 1 -19z m360 -135 c-3 -10 -5 -4 -5 12 0 17 2 24 5 18 2 -7
2 -21 0 -30z m170 -15 c-3 -8 -6 -5 -6 6 -1 11 2 17 5 13 3 -3 4 -12 1 -19z
m-181 -115 c-4 -54 -13 -128 -20 -165 -7 -38 -9 -68 -5 -68 4 0 17 16 29 35
31 51 37 43 6 -9 -25 -43 -26 -82 -2 -73 6 3 12 -6 12 -19 1 -13 -2 -21 -7
-18 -22 13 -20 -29 2 -52 29 -31 189 -145 286 -205 39 -24 70 -45 68 -47 -6
-6 -160 92 -274 175 -63 46 -121 83 -128 83 -37 0 14 -133 169 -444 60 -120
108 -220 106 -222 -6 -6 -256 497 -289 581 -17 44 -32 82 -35 84 -2 2 -16 -4
-31 -14 l-28 -18 24 26 c17 19 22 34 19 56 -3 17 -1 31 4 31 4 0 8 7 8 15 0 8
8 15 19 15 13 0 21 9 25 33 17 89 36 237 36 275 0 23 3 42 6 42 4 0 3 -44 0
-97z m5358 -200 c9 -22 15 -58 14 -85 -1 -27 3 -53 10 -60 9 -9 12 -7 12 9 0
27 10 53 20 53 18 0 30 -76 45 -288 18 -266 19 -388 4 -398 -6 -3 -15 -1 -19
6 -12 19 -30 202 -37 375 -6 159 -6 160 -35 187 -15 14 -28 33 -28 42 0 8 -12
23 -26 32 -24 16 -25 20 -18 83 3 36 8 69 11 74 10 18 31 4 47 -30z m-1074
-47 c0 -3 -15 -14 -32 -26 l-33 -22 30 26 c31 27 35 29 35 22z m-74 -54 c-7
-11 -96 -74 -96 -68 0 5 91 75 98 76 2 0 1 -3 -2 -8z m-4103 -19 c-7 -2 -21
-2 -30 0 -10 3 -4 5 12 5 17 0 24 -2 18 -5z m800 -135 c257 -274 491 -537 643
-723 119 -145 462 -585 551 -706 74 -101 85 -109 136 -109 43 1 61 17 159 145
80 105 257 331 446 570 207 263 782 894 814 895 3 0 16 -16 28 -34 15 -25 26
-33 38 -29 14 6 15 4 5 -8 -8 -11 -8 -23 2 -53 17 -49 30 -63 47 -48 7 5 30
13 51 17 32 6 36 5 31 -9 -3 -9 -13 -16 -21 -16 -7 0 -25 -11 -39 -25 -14 -14
-29 -25 -34 -25 -6 0 -10 -8 -10 -18 0 -10 -12 -34 -26 -53 -70 -94 -172 -269
-157 -269 4 0 -3 -10 -14 -22 -11 -13 -89 -138 -173 -278 -84 -140 -175 -286
-200 -325 -72 -108 -170 -276 -244 -420 -54 -105 -64 -131 -51 -133 21 -5 54
25 69 63 l12 29 41 -59 c23 -33 57 -76 77 -94 20 -19 36 -42 36 -50 0 -22 57
-81 78 -82 10 0 12 -3 5 -6 -7 -2 -13 -13 -13 -24 0 -14 8 -19 33 -20 30 -2
30 -2 5 -6 -26 -4 -28 -8 -28 -48 0 -24 4 -55 10 -69 9 -24 15 -26 64 -26 30
0 57 4 60 9 3 4 20 11 37 15 18 3 29 9 26 13 -4 3 14 14 40 22 27 9 47 19 46
23 -2 4 9 19 23 33 14 14 22 30 19 35 -3 6 -1 10 6 10 7 0 10 3 6 6 -3 3 -2
16 3 29 5 13 5 26 -1 32 -24 24 74 72 147 73 86 0 252 77 289 133 9 14 25 27
35 30 11 3 24 16 29 29 14 36 79 74 220 127 121 46 202 87 331 169 47 31 52
36 35 43 -15 6 -11 8 16 7 24 -1 45 6 64 20 49 39 90 25 53 -18 -13 -14 -3 -5
22 20 25 26 68 77 95 113 60 81 126 134 265 215 167 97 213 115 305 120 76 4
82 2 121 -26 46 -34 175 -191 218 -265 l27 -48 -31 -110 c-17 -60 -51 -169
-76 -242 -127 -372 -359 -828 -547 -1077 -182 -241 -547 -545 -832 -692 -98
-50 -218 -93 -239 -85 -10 4 -14 40 -16 149 -1 79 -3 164 -4 190 -1 26 1 45 6
42 4 -3 8 -1 8 4 0 5 57 42 128 82 302 172 559 367 778 592 189 194 324 380
324 447 0 27 -40 58 -91 71 -64 16 -150 -7 -254 -67 -126 -73 -142 -87 -150
-138 -8 -59 -54 -116 -184 -230 -151 -132 -275 -223 -429 -316 -163 -98 -376
-209 -402 -209 -33 0 -32 19 2 66 31 43 32 47 17 72 -8 15 -28 34 -44 42 -42
20 -146 22 -240 3 -44 -8 -101 -15 -127 -14 -51 1 -173 -37 -288 -90 l-67 -30
-76 46 c-42 25 -81 54 -86 63 -5 9 -7 39 -4 67 6 54 1 62 -98 170 -6 5 -7 -9
-3 -35 5 -37 3 -48 -14 -63 -19 -18 -21 -17 -45 15 -39 51 -64 109 -72 161 -8
51 -25 74 -25 33 0 -17 -5 -26 -16 -26 -13 0 -15 -7 -10 -35 4 -20 3 -41 -1
-48 -4 -6 -8 -23 -8 -37 0 -58 -75 -17 -99 54 -13 37 -14 38 -21 15 -4 -13
-44 -98 -90 -189 -45 -91 -92 -194 -104 -230 -12 -36 -25 -71 -30 -79 -11 -17
-17 -7 -171 259 -183 316 -381 605 -414 605 -7 0 -11 -20 -11 -51 1 -47 -1
-50 -23 -46 -55 11 -162 175 -162 249 0 24 26 43 59 43 30 0 27 10 -25 90 -62
97 -386 651 -454 778 -30 57 -92 169 -138 250 -45 81 -134 249 -197 374 -64
125 -120 230 -125 233 -10 6 -4 16 37 61 16 18 33 24 62 24 22 0 43 5 46 10
17 27 51 2 168 -122z m3496 63 c-6 -18 -14 -30 -17 -27 -2 3 1 19 8 36 16 40
23 33 9 -9z m-3922 -83 c-3 -8 -6 -5 -6 6 -1 11 2 17 5 13 3 -3 4 -12 1 -19z
m1864 2 c154 -29 300 -145 377 -298 46 -93 68 -174 58 -225 -10 -53 -132 -220
-391 -531 -78 -95 -136 -156 -147 -156 -22 0 -47 27 -259 285 -201 244 -280
349 -298 393 -12 29 -11 40 14 110 108 309 363 475 646 422z m-1854 -62 c-3
-7 -5 -2 -5 12 0 14 2 19 5 13 2 -7 2 -19 0 -25z m3486 -46 c-7 -2 -13 -11
-14 -20 0 -14 -2 -14 -8 2 -4 11 -16 23 -27 28 -16 6 -15 7 6 5 18 -1 24 2 22
13 -3 11 2 9 16 -5 14 -15 16 -21 5 -23z m360 -4 c-3 -16 -9 -28 -14 -28 -4 0
-3 14 3 31 12 36 18 35 11 -3z m-3836 -20 c-3 -7 -5 -2 -5 12 0 14 2 19 5 13
2 -7 2 -19 0 -25z m3641 15 c-16 -2 -40 -2 -55 0 -16 2 -3 4 27 4 30 0 43 -2
28 -4z m245 -20 c-7 -2 -21 -2 -30 0 -10 3 -4 5 12 5 17 0 24 -2 18 -5z m100
-10 c-13 -2 -33 -2 -45 0 -13 2 -3 4 22 4 25 0 35 -2 23 -4z m-4016 -42 c10
-6 15 -11 12 -11 -10 0 -99 40 -99 46 0 5 60 -19 87 -35z m4126 32 c-13 -2
-33 -2 -45 0 -13 2 -3 4 22 4 25 0 35 -2 23 -4z m115 -10 c-10 -2 -28 -2 -40
0 -13 2 -5 4 17 4 22 1 32 -1 23 -4z m-4169 -48 c12 -3 21 -11 21 -16 0 -6 -9
-7 -20 -4 -16 5 -20 2 -20 -16 0 -15 4 -19 13 -13 7 5 6 2 -3 -6 -9 -10 -16
-38 -19 -80 -5 -104 -13 -85 -10 25 1 55 1 105 0 110 -2 6 -3 19 -2 30 2 19 3
19 11 -2 5 -12 18 -24 29 -28z m4261 9 c0 -7 -4 -15 -9 -18 -4 -3 -21 -40 -36
-83 -80 -227 -341 -751 -389 -780 -6 -4 -2 6 8 22 112 171 278 511 378 775 15
41 28 78 28 82 0 4 -39 -24 -87 -63 -111 -90 -473 -331 -473 -316 0 3 28 22
63 43 111 67 320 211 407 282 84 67 110 81 110 56z m104 -114 c5 -17 4 -20 -2
-10 -5 8 -13 26 -16 40 -5 17 -4 20 2 10 5 -8 13 -26 16 -40z m56 -156 c22
-65 40 -123 39 -129 0 -5 -18 42 -40 105 -49 145 -53 156 -45 149 3 -3 24 -59
46 -125z m-5143 -49 c19 -8 45 -15 57 -15 11 0 40 -18 64 -40 49 -45 46 -44
72 -28 15 10 22 10 32 0 7 -7 14 -17 14 -22 1 -6 2 -14 3 -20 0 -5 34 -25 75
-44 41 -19 91 -50 111 -70 30 -31 42 -36 80 -36 25 0 45 -4 45 -10 0 -5 19 -9
43 -8 54 1 71 -4 97 -27 12 -11 20 -13 20 -6 0 7 5 9 10 6 6 -4 8 -10 5 -15
-3 -5 9 -20 27 -33 29 -23 31 -28 20 -52 -7 -14 -12 -43 -12 -65 0 -45 35 -80
79 -80 50 0 97 -20 147 -62 27 -24 88 -69 135 -101 47 -31 92 -70 102 -86 16
-27 72 -55 138 -68 25 -5 26 -7 16 -41 -15 -51 -21 -57 -69 -72 -61 -18 -91
-42 -107 -86 -7 -22 -25 -55 -40 -74 -15 -19 -30 -43 -34 -52 -9 -24 -39 -23
-90 3 -23 12 -53 23 -67 24 -14 2 -33 6 -42 10 -10 4 -26 4 -35 1 -14 -6 -11
-10 15 -29 38 -27 95 -104 88 -120 -2 -7 -5 -5 -5 4 -1 19 -29 45 -38 35 -4
-3 1 -21 9 -40 12 -25 14 -43 8 -71 -5 -21 -6 -43 -4 -49 2 -6 -7 -23 -20 -37
-25 -27 -42 -67 -37 -84 2 -5 3 -28 2 -50 0 -22 6 -54 14 -72 19 -40 81 -92
118 -100 30 -6 131 -92 109 -93 -7 0 -17 -12 -23 -26 -9 -24 -11 -25 -27 -11
-9 8 -29 19 -44 22 -23 6 -28 4 -28 -12 0 -20 24 -55 98 -142 24 -28 40 -51
34 -51 -48 0 -342 336 -547 625 -184 260 -500 738 -727 1102 -26 42 -57 101
-69 132 -20 52 -20 58 -5 84 9 16 16 49 16 73 0 37 4 46 23 53 13 5 29 16 36
25 17 20 61 21 108 1z m3864 -32 c13 -16 12 -17 -3 -4 -10 7 -18 15 -18 17 0
8 8 3 21 -13z m-3411 -57 c0 -12 -5 -7 -19 24 -11 24 -11 24 3 6 9 -11 16 -24
16 -30z m3830 10 c0 -2 -8 -10 -17 -17 -16 -13 -17 -12 -4 4 13 16 21 21 21
13z m920 -51 c0 -5 -5 -3 -10 5 -5 8 -10 20 -10 25 0 6 5 3 10 -5 5 -8 10 -19
10 -25z m-991 -8 c-2 -1 -13 -9 -24 -17 -19 -14 -19 -14 -6 3 7 9 18 17 24 17
6 0 8 -1 6 -3z m-87 -54 c-32 -32 -74 -41 -70 -16 4 21 32 38 68 39 l26 1 -24
-24z m163 7 c-3 -5 -10 -10 -16 -10 -5 0 -9 5 -9 10 0 6 7 10 16 10 8 0 12 -4
9 -10z m-3240 -60 c5 -8 11 -7 21 1 8 7 14 7 14 1 0 -17 -25 -20 -45 -6 -10 8
-14 14 -8 14 7 0 15 -5 18 -10z m5472 -72 c-3 -7 -5 -2 -5 12 0 14 2 19 5 13
2 -7 2 -19 0 -25z m-2431 -53 c-37 -48 -44 -45 -9 4 15 22 30 38 32 35 2 -2
-8 -19 -23 -39z m-99 -132 c-25 -32 -57 -69 -72 -83 -16 -14 3 12 40 58 79 95
97 109 32 25z m532 -110 c-12 -21 -32 -49 -44 -63 -12 -14 -47 -60 -79 -102
-31 -43 -58 -78 -61 -78 -5 0 41 65 179 253 28 39 31 33 5 -10z m-629 -6 c0
-2 -19 -21 -42 -42 l-43 -40 40 43 c36 39 45 47 45 39z m770 -47 c40 -6 27 -7
-45 -3 -55 3 -102 7 -104 9 -7 7 91 2 149 -6z m-267 -17 c-7 -2 -21 -2 -30 0
-10 3 -4 5 12 5 17 0 24 -2 18 -5z m375 0 c-10 -2 -26 -2 -35 0 -10 3 -2 5 17
5 19 0 27 -2 18 -5z m-475 -10 c-7 -2 -21 -2 -30 0 -10 3 -4 5 12 5 17 0 24
-2 18 -5z m-96 -9 c-3 -3 -12 -4 -19 -1 -8 3 -5 6 6 6 11 1 17 -2 13 -5z
m-468 -21 c-7 -10 -15 -20 -16 -22 -2 -2 -3 5 -3 17 0 14 6 22 16 22 14 0 15
-3 3 -17z m388 11 c-3 -3 -12 -4 -19 -1 -8 3 -5 6 6 6 11 1 17 -2 13 -5z
m-4723 -60 c3 -8 2 -12 -4 -9 -6 3 -10 10 -10 16 0 14 7 11 14 -7z m4910 -129
c-14 -19 -29 -35 -31 -35 -5 0 7 18 36 53 26 31 23 18 -5 -18z m-4804 -73
c111 -205 271 -438 429 -627 96 -116 311 -330 423 -424 49 -40 85 -77 82 -82
-3 -5 1 -7 8 -4 7 3 33 -14 59 -38 25 -23 36 -34 24 -24 -41 33 -34 17 9 -23
41 -38 64 -52 51 -30 -10 16 1 11 16 -7 8 -10 9 -14 2 -10 -6 4 -15 2 -20 -5
-11 -19 -13 -39 -2 -32 5 3 9 1 9 -4 0 -10 -26 -68 -41 -92 -5 -8 -13 -24 -18
-35 -5 -12 -16 -27 -25 -34 -9 -7 -16 -20 -16 -28 0 -13 -6 -22 -36 -56 -6 -7
-16 -23 -23 -35 -8 -14 -18 -21 -27 -18 -12 4 -12 2 -4 -14 9 -16 8 -18 -6
-13 -12 5 -15 3 -10 -6 12 -19 -65 38 -180 134 -111 92 -377 352 -465 455
-148 172 -377 488 -457 631 -29 50 -30 58 -16 69 34 29 65 104 105 250 37 139
63 209 75 198 2 -2 26 -46 54 -96z m4030 -345 c41 0 91 3 110 6 19 4 29 4 23
1 -7 -3 -13 -11 -13 -18 0 -7 -23 -25 -51 -40 l-50 -28 -67 33 c-66 34 -100
69 -51 54 13 -4 57 -8 99 -8z m2575 -158 c-13 -24 -25 -40 -25 -35 0 11 43 87
47 82 2 -2 -8 -23 -22 -47z m-54 -96 c-12 -20 -14 -14 -5 12 4 9 9 14 11 11 3
-2 0 -13 -6 -23z m-5323 -753 c34 -24 62 -45 62 -47 0 -11 -142 89 -160 114
-11 14 -9 14 10 -3 14 -11 53 -40 88 -64z m-122 55 c9 -8 11 -15 6 -15 -5 0
-15 7 -22 15 -7 8 -9 15 -6 15 4 0 14 -7 22 -15z m394 -241 c0 -2 -9 0 -20 6
-11 6 -20 13 -20 16 0 2 9 0 20 -6 11 -6 20 -13 20 -16z m51 -21 c34 -20 40
-39 7 -22 -25 14 -53 39 -43 39 4 0 20 -8 36 -17z m135 -74 c3 -5 2 -9 -1 -9
-9 0 -65 30 -65 35 0 7 60 -16 66 -26z m44 -19 c8 -5 11 -10 5 -10 -5 0 -17 5
-25 10 -8 5 -10 10 -5 10 6 0 17 -5 25 -10z m2387 -195 c-8 -19 15 -63 42 -81
12 -9 21 -21 21 -29 0 -8 6 -12 13 -10 7 3 18 -8 26 -26 13 -30 12 -33 -8 -49
-13 -9 -39 -25 -59 -36 -21 -10 -39 -22 -42 -25 -3 -3 -12 -9 -20 -12 -12 -4
-11 -6 3 -6 21 -1 22 -19 1 -42 -9 -10 -18 -29 -19 -41 -1 -13 -3 -26 -4 -30
0 -4 -10 -10 -22 -13 -14 -5 -19 -13 -16 -25 3 -11 -1 -21 -9 -24 -10 -4 -14
4 -14 27 0 18 -16 93 -35 166 -31 125 -33 136 -17 147 9 6 49 37 87 67 79 62
79 63 72 42z m-110 -571 c-3 -3 -12 -4 -19 -1 -8 3 -5 6 6 6 11 1 17 -2 13 -5z"/>
<path d="M3225 7707 c-43 -17 -94 -58 -89 -71 9 -23 45 -37 80 -30 29 5 39 14
59 55 14 27 25 51 25 54 0 9 -43 4 -75 -8z"/>
<path d="M3097 7623 c-13 -12 -7 -23 13 -23 13 0 18 5 14 15 -7 16 -17 19 -27
8z"/>
<path d="M3040 7555 c0 -18 -3 -42 -6 -52 -4 -11 0 -8 11 7 10 14 24 30 32 37
18 14 6 37 -19 39 -14 1 -18 -6 -18 -31z"/>
<path d="M4508 7583 c-10 -2 -18 -10 -19 -16 0 -7 -2 -19 -4 -27 -3 -17 20
-19 68 -5 l29 8 -28 23 c-15 13 -28 23 -28 23 -1 -1 -9 -3 -18 -6z"/>
<path d="M4655 7559 l-20 -21 29 4 c19 2 30 9 32 21 3 23 -16 21 -41 -4z"/>
<path d="M4244 7475 c-17 -13 -17 -14 -2 -15 9 0 20 5 23 11 11 17 0 20 -21 4z"/>
<path d="M2900 7323 c-36 -31 -108 -88 -160 -127 -94 -70 -113 -87 -105 -95 4
-4 59 35 87 61 20 20 91 74 108 82 8 4 0 -6 -18 -23 -18 -17 -29 -31 -24 -31
4 0 12 4 18 9 15 15 84 41 84 32 0 -5 -18 -16 -39 -25 -42 -16 -143 -79 -226
-141 -46 -33 -47 -36 -20 -31 17 4 67 13 111 20 45 8 99 22 120 32 22 9 44 16
51 15 7 -1 15 11 18 26 4 15 11 38 16 51 13 34 11 50 -8 55 -14 3 -12 6 9 11
25 7 36 31 53 119 6 26 -5 21 -75 -40z"/>
<path d="M2985 7261 c3 -6 2 -11 -3 -11 -11 0 -67 -129 -59 -137 8 -8 48 3 70
19 12 9 19 30 21 64 3 42 0 53 -16 63 -12 7 -17 8 -13 2z"/>
<path d="M4087 7199 c-37 -15 -102 -38 -145 -50 -42 -12 -98 -32 -125 -45 -26
-14 -67 -27 -92 -31 -47 -6 -48 -8 -45 -58 1 -20 -6 -38 -19 -49 -26 -24 -27
-36 -2 -36 18 0 19 -3 10 -30 -12 -33 -24 -37 -53 -15 -11 8 -36 15 -56 15
-60 0 -154 -21 -163 -36 -11 -19 -56 -18 -64 2 -9 25 24 83 54 95 22 8 64 7
110 -4 3 -1 10 10 16 26 7 22 4 32 -17 58 -38 45 -43 75 -17 103 20 22 21 24
5 30 -10 4 -49 4 -87 0 -48 -5 -71 -3 -76 5 -5 8 -13 7 -27 -5 -18 -15 -18
-15 4 -9 30 8 28 -3 -2 -15 -16 -6 -26 -19 -29 -37 l-4 -28 -2 28 -1 27 -39
-20 c-32 -16 -38 -24 -35 -42 2 -13 2 -17 -2 -10 -3 6 -10 12 -16 12 -22 0
-139 -95 -263 -213 -124 -120 -129 -126 -113 -143 9 -11 26 -29 38 -41 11 -13
20 -30 20 -38 0 -8 3 -15 8 -15 4 0 39 -28 77 -61 39 -34 89 -70 113 -81 l43
-19 67 37 c37 20 75 44 85 52 21 19 22 45 2 62 -12 10 -18 8 -34 -11 -17 -21
-22 -22 -41 -11 -12 7 -31 10 -43 7 -21 -5 -21 -5 -3 7 42 28 86 70 81 78 -8
13 38 75 54 75 8 0 16 6 19 14 3 10 0 12 -11 8 -20 -8 -34 12 -17 23 8 5 19 1
30 -12 16 -20 18 -20 46 -5 67 36 145 45 181 22 12 -8 36 -15 53 -15 25 0 30
4 30 24 0 26 25 42 44 28 6 -5 34 -9 61 -9 38 -1 44 1 25 7 l-25 8 26 1 c30 1
49 18 49 44 0 12 5 17 14 14 7 -3 23 1 35 9 12 8 25 13 30 10 11 -7 61 32 61
47 0 7 30 27 68 45 105 52 117 60 114 77 -2 8 2 15 8 15 5 0 10 6 10 14 0 8 9
18 20 21 29 9 81 55 74 66 -9 15 -45 8 -117 -22z m-77 -85 c-25 -7 -52 -13
-60 -13 -21 1 60 27 85 27 11 0 0 -6 -25 -14z m-83 -20 c-3 -3 -12 -4 -19 -1
-8 3 -5 6 6 6 11 1 17 -2 13 -5z m-650 -56 c-3 -7 -5 -2 -5 12 0 14 2 19 5 13
2 -7 2 -19 0 -25z m-87 -38 l-8 -35 -1 31 c-1 17 2 34 6 37 11 12 12 3 3 -33z
m97 -22 c-3 -8 -6 -5 -6 6 -1 11 2 17 5 13 3 -3 4 -12 1 -19z m-110 -55 c-3
-10 -5 -4 -5 12 0 17 2 24 5 18 2 -7 2 -21 0 -30z m-82 -333 c-3 -5 -12 -10
-18 -10 -7 0 -6 4 3 10 19 12 23 12 15 0z"/>
<path d="M3217 7163 c-48 -34 -52 -64 -4 -35 17 11 37 21 43 23 6 2 8 12 5 21
-6 16 -10 15 -44 -9z"/>
<path d="M2935 7090 c-81 -32 -78 -28 -141 -204 -24 -67 -43 -112 -43 -101 -1
25 53 194 75 236 8 17 14 33 12 35 -4 3 -96 -16 -252 -54 -67 -16 -69 -18 -72
-50 -2 -18 -17 -84 -33 -147 l-29 -114 57 -17 c55 -16 172 -35 180 -28 3 2
-47 107 -146 306 -2 3 6 4 17 1 11 -3 61 -50 112 -104 l91 -99 123 122 c82 82
123 129 122 143 -1 11 2 39 6 63 4 23 4 42 -1 41 -4 -1 -39 -14 -78 -29z m-10
-40 c-10 -11 -23 -20 -29 -19 -6 0 -6 3 2 6 6 2 12 11 12 19 0 8 7 14 17 14
14 0 14 -2 -2 -20z"/>
<path d="M2600 7085 c-7 -8 -15 -13 -19 -12 -3 2 -16 -8 -29 -21 -26 -27 -23
-26 31 7 20 12 37 27 37 32 0 13 -6 11 -20 -6z"/>
<path d="M2400 6918 c-107 -64 -157 -103 -157 -122 0 -9 32 -29 77 -50 133
-60 121 -67 153 80 15 70 24 131 20 135 -5 5 -46 -15 -93 -43z"/>
<path d="M2957 6339 c7 -7 15 -10 18 -7 3 3 -2 9 -12 12 -14 6 -15 5 -6 -5z"/>
<path d="M6300 6081 c0 -17 18 -21 24 -6 3 9 0 15 -9 15 -8 0 -15 -4 -15 -9z"/>
<path d="M6293 3723 c9 -2 23 -2 30 0 6 3 -1 5 -18 5 -16 0 -22 -2 -12 -5z"/>
<path d="M2836 2427 c3 -10 9 -15 12 -12 3 3 0 11 -7 18 -10 9 -11 8 -5 -6z"/>
<path d="M5981 1854 c0 -11 3 -14 6 -6 3 7 2 16 -1 19 -3 4 -6 -2 -5 -13z"/>
<path d="M5048 9153 c6 -2 18 -2 25 0 6 3 1 5 -13 5 -14 0 -19 -2 -12 -5z"/>
<path d="M5128 9153 c7 -3 16 -2 19 1 4 3 -2 6 -13 5 -11 0 -14 -3 -6 -6z"/>
<path d="M5303 9143 c15 -2 37 -2 50 0 12 2 0 4 -28 4 -27 0 -38 -2 -22 -4z"/>
<path d="M5553 9123 c9 -2 23 -2 30 0 6 3 -1 5 -18 5 -16 0 -22 -2 -12 -5z"/>
<path d="M5628 9113 c6 -2 18 -2 25 0 6 3 1 5 -13 5 -14 0 -19 -2 -12 -5z"/>
<path d="M5705 9100 c17 -4 41 -8 55 -8 22 0 22 1 -5 8 -16 4 -41 8 -55 8 -22
0 -22 -1 5 -8z"/>
<path d="M5815 9080 c17 -4 41 -8 55 -8 22 0 22 1 -5 8 -16 4 -41 8 -55 8 -22
0 -22 -1 5 -8z"/>
<path d="M5930 9061 c8 -5 33 -12 55 -15 28 -4 33 -3 15 2 -46 16 -86 23 -70
13z"/>
<path d="M6038 9033 c6 -2 18 -2 25 0 6 3 1 5 -13 5 -14 0 -19 -2 -12 -5z"/>
<path d="M6090 9021 c9 -5 51 -19 95 -30 44 -11 107 -29 139 -41 68 -23 97
-26 48 -5 -28 12 -214 67 -277 81 -16 4 -17 3 -5 -5z"/>
<path d="M6455 8905 c28 -13 57 -24 65 -24 8 0 -12 11 -44 24 -75 31 -87 31
-21 0z"/>
<path d="M6758 8743 c7 -3 16 -2 19 1 4 3 -2 6 -13 5 -11 0 -14 -3 -6 -6z"/>
<path d="M8881 6294 c0 -11 3 -14 6 -6 3 7 2 16 -1 19 -3 4 -6 -2 -5 -13z"/>
<path d="M8895 6250 c16 -75 40 -153 43 -139 1 8 -9 49 -23 90 -13 41 -22 63
-20 49z"/>
<path d="M8942 6075 c0 -11 3 -29 8 -40 11 -25 11 1 0 35 -6 20 -8 21 -8 5z"/>
<path d="M8962 5985 c0 -11 4 -31 8 -45 6 -20 8 -21 8 -5 0 11 -4 31 -8 45 -6
20 -8 21 -8 5z"/>
<path d="M8982 5890 c0 -14 2 -19 5 -12 2 6 2 18 0 25 -3 6 -5 1 -5 -13z"/>
<path d="M5898 1663 c7 -3 16 -2 19 1 4 3 -2 6 -13 5 -11 0 -14 -3 -6 -6z"/>
<path d="M5163 1523 c9 -2 25 -2 35 0 9 3 1 5 -18 5 -19 0 -27 -2 -17 -5z"/>
</g>
</svg>
